<svg id="Layer_2" data-name="Layer 2" xmlns="http://www.w3.org/2000/svg" width="159.22" height="148.12" viewBox="0 0 159.22 148.12"><title>logo</title><line y1="135.06" x2="36.95" y2="135.06" style="fill:none"/><line x1="133.09" y1="148.12" x2="159.22" y2="121.99" style="fill:none"/><path d="M63.92,171l35.46-75.3,19.23-38.59L106.49,33a7.27,7.27,0,0,0-13,0L42,135.54A24.5,24.5,0,0,0,63.92,171Z" transform="translate(-17.4 -28.98)" style="fill:#6751a2"/><path d="M136.08,171h0A24.5,24.5,0,0,0,158,135.54L118.61,57.13,107.06,80.3a34.07,34.07,0,0,0-.2,30Z" transform="translate(-17.4 -28.98)" style="fill:#cac4cf"/><path d="M99.56,123.47l.5,38.37h0A11.79,11.79,0,0,1,89.4,145Z" transform="translate(-17.4 -28.98)" style="fill:#cac4cf"/><path d="M100.06,161.84h0l-.5-38.37,10.67,22.19A11.28,11.28,0,0,1,100.06,161.84Z" transform="translate(-17.4 -28.98)" style="fill:#6751a2"/></svg>