<?xml version="1.0" standalone="no"?>
<!DOCTYPE svg PUBLIC "-//W3C//DTD SVG 20010904//EN"
 "http://www.w3.org/TR/2001/REC-SVG-20010904/DTD/svg10.dtd">
<svg version="1.0" xmlns="http://www.w3.org/2000/svg"
 width="636.000000pt" height="636.000000pt" viewBox="0 0 636.000000 636.000000"
 preserveAspectRatio="xMidYMid meet">
<metadata>
Created by potrace 1.14, written by Peter Selinger 2001-2017
</metadata>
<g transform="translate(0.000000,636.000000) scale(0.100000,-0.100000)"
fill="#000000" stroke="none">
<path d="M3195 6119 c-57 -21 -112 -67 -142 -119 -36 -62 -193 -376 -193 -387
0 -6 -3 -13 -7 -15 -5 -1 -219 -424 -477 -938 -258 -514 -472 -942 -477 -950
-4 -8 -25 -51 -46 -95 -21 -44 -41 -83 -46 -86 -4 -3 -9 -16 -12 -28 -2 -13
-9 -28 -14 -35 -5 -6 -42 -77 -81 -156 -39 -80 -75 -152 -79 -160 -35 -62
-651 -1296 -649 -1301 2 -3 -3 -13 -10 -21 -30 -37 -71 -198 -79 -313 -2 -38
-5 -74 -5 -80 -2 -20 14 -151 23 -195 63 -294 252 -537 525 -673 69 -35 172
-72 224 -81 14 -2 36 -7 50 -10 14 -4 55 -8 92 -10 59 -2 68 0 77 18 20 42
104 222 133 286 45 100 62 135 71 138 4 2 7 9 7 16 0 7 11 34 24 62 13 27 38
81 56 119 18 39 63 135 101 214 38 79 69 149 69 155 0 6 9 22 20 36 11 14 20
28 20 32 0 8 14 38 107 238 22 47 46 100 54 118 8 17 17 32 20 32 4 0 10 11
13 24 3 13 32 78 63 143 32 65 58 120 58 123 1 3 21 46 45 95 24 50 44 92 44
95 1 3 13 30 28 60 104 219 198 422 198 430 0 6 5 10 10 10 6 0 10 6 10 13 0
6 17 48 39 92 21 44 49 103 61 130 107 237 394 815 404 815 5 0 4 -6 -1 -12
-10 -15 -30 -71 -37 -108 -3 -14 -12 -56 -20 -95 -8 -38 -18 -104 -22 -145 -3
-41 -8 -78 -11 -82 -2 -5 0 -8 5 -8 6 0 7 -14 2 -34 -4 -19 -6 -36 -5 -38 2
-2 6 -37 9 -78 15 -170 62 -328 152 -516 94 -198 193 -403 252 -524 31 -63 55
-118 54 -122 -1 -3 5 -12 13 -18 8 -7 15 -17 15 -21 0 -10 36 -86 175 -374 48
-99 110 -227 137 -285 140 -291 171 -355 231 -480 35 -74 99 -207 141 -295
119 -246 120 -250 130 -257 10 -7 87 -2 146 9 19 3 38 6 42 5 17 -4 203 62
256 90 168 91 302 218 395 373 38 65 96 201 103 244 3 14 7 33 10 41 27 75 24
335 -5 447 -28 109 -55 167 -290 633 -308 610 -335 665 -336 670 -1 3 -30 61
-65 130 -75 146 -139 277 -140 288 -1 4 -7 14 -14 22 -6 8 -131 254 -276 545
-146 292 -268 532 -272 533 -5 2 -8 8 -8 13 0 9 -569 1152 -699 1402 -33 64
-71 128 -85 142 -75 75 -210 103 -311 64z"/>
<path d="M3242 2278 c-115 -241 -164 -344 -165 -353 -1 -5 -4 -12 -7 -15 -5
-5 -33 -60 -35 -70 -1 -5 -57 -123 -123 -260 -21 -41 -37 -77 -38 -80 0 -3 -4
-13 -8 -22 -4 -9 -9 -22 -10 -30 -2 -7 -7 -22 -12 -33 -10 -23 -10 -185 0
-230 22 -96 109 -216 206 -282 106 -72 298 -91 415 -42 17 7 33 13 37 13 11 1
128 88 128 95 0 3 12 19 26 34 51 55 91 169 98 280 2 32 -18 129 -33 162 -28
61 -112 237 -169 355 -35 74 -86 180 -112 235 -26 55 -73 151 -103 213 l-55
113 -40 -83z"/>
</g>
</svg>
